<svg width="600" height="600" viewBox="0 0 600 600" fill="none" xmlns="http://www.w3.org/2000/svg">
<rect width="600" height="600" fill="white"/>
<path d="M111.999 450.564C111.321 453.148 110.722 455.448 110.015 458.16C115.371 458.16 120.271 458.308 125.146 458.019C125.984 457.97 127.102 456.176 127.434 455.001C132.176 438.209 136.814 421.386 141.457 404.566C144.404 393.889 147.16 383.16 153.245 373.67C167.844 350.903 188.473 338.434 215.594 338.274C267.278 337.969 318.964 338.193 370.65 338.171C405.122 338.156 433.963 316.331 443.425 283.157C451.555 254.651 440.339 222.22 416.115 204.014C402.78 193.993 387.835 188.9 371.153 188.912C343.988 188.933 316.823 188.861 289.659 188.956C254.339 189.079 225.583 211.492 216.388 245.675C211.073 265.431 205.468 285.109 199.983 304.819C199.727 305.738 199.371 306.63 198.906 307.988C196.837 307.409 194.848 306.851 192.516 306.197C194.88 297.761 197.15 289.681 199.407 281.597C203.097 268.383 206.767 255.164 210.464 241.952C220.268 206.914 251.71 182.58 288.007 182.312C316.853 182.099 345.704 182.106 374.55 182.321C408.099 182.572 439.131 207.019 449.313 240.827C461.682 281.898 439.06 326.288 398.651 340.237C388.999 343.569 379.061 344.786 368.867 344.771C318.023 344.697 267.179 344.695 216.335 344.779C195.496 344.814 178.3 353.069 164.851 368.914C157.662 377.383 153.131 387.308 150.221 398.033C145.179 416.617 139.988 435.162 134.871 453.726C134.497 455.081 134.213 456.461 133.803 458.183C138.953 458.183 143.642 458.384 148.288 458.028C149.329 457.948 150.729 456.063 151.103 454.761C155.119 440.764 158.952 426.715 162.86 412.686C164.378 407.238 165.881 401.784 167.529 396.375C173.768 375.889 193.09 361.218 214.507 361.166C266.673 361.038 318.84 361.084 371.006 361.123C391.085 361.139 409.349 355.398 425.992 344.246C478.522 309.047 483.369 232.085 435.696 190.541C417.069 174.309 395.516 165.933 370.778 165.944C343.492 165.956 316.207 165.836 288.923 166.01C244.483 166.294 206.858 195.245 194.896 238.095C187.907 263.132 180.879 288.158 173.86 313.186C173.573 314.212 173.199 315.214 172.748 316.582C170.705 316.049 168.799 315.551 166.4 314.925C168.217 308.299 169.919 301.946 171.701 295.617C177.473 275.114 182.819 254.477 189.162 234.153C201.116 195.851 227.061 171.914 265.757 162.077C273.015 160.231 280.717 159.485 288.227 159.401C315.869 159.094 343.518 159.119 371.162 159.312C419.98 159.653 461.356 192.145 472.517 239.697C480.873 275.293 472.261 307.155 447.751 334.166C427.738 356.22 402.275 367.411 372.547 367.604C320.262 367.941 267.974 367.7 215.688 367.749C200.345 367.763 188.103 374.285 179.747 386.961C176.124 392.457 173.854 399.051 171.944 405.439C167.153 421.464 162.914 437.654 158.467 453.781C158.121 455.036 157.876 456.318 157.505 457.936C163.12 457.936 168.436 457.936 174.084 457.936C176.632 448.729 179.198 439.468 181.758 430.205C184.067 421.853 186.374 413.501 188.671 405.146C192.506 391.196 201.831 383.935 216.209 383.925C268.015 383.893 319.82 383.887 371.626 383.915C426.632 383.944 475.416 345.42 488.252 291.757C505.98 217.638 450.462 144.935 374.336 143.151C345.264 142.47 316.159 142.715 287.076 143.095C233.942 143.789 187.496 179.901 173.147 231.197C163.551 265.503 153.98 299.817 144.392 334.126C144.072 335.272 143.697 336.402 143.232 337.918C141.201 337.415 139.29 336.942 136.921 336.356C137.549 333.788 138.041 331.483 138.676 329.218C148.123 295.497 156.862 261.555 167.223 228.118C182.109 180.083 214.757 150.377 263.68 138.939C270.071 137.445 276.757 136.592 283.315 136.54C314.203 136.295 345.139 135.385 375.976 136.677C423.28 138.658 459.385 161.227 482.13 202.575C506.054 246.069 504.474 290.324 477.761 332.145C453.781 369.686 418.42 389.634 373.693 390.339C324.664 391.111 275.614 390.542 226.573 390.561C222.967 390.562 219.36 390.53 215.755 390.603C205.264 390.815 198.279 396.027 195.419 406.179C190.296 424.364 185.272 442.58 180.431 460.842C179.604 463.96 178.438 465.019 175.155 465C151.958 464.86 128.759 464.944 105.56 464.956C104.249 464.957 102.938 464.956 101 464.956C102.681 458.847 104.244 453.113 105.838 447.387C111.037 428.721 116.283 410.068 121.447 391.392C130.983 356.91 151.726 332.441 185.698 320.347C193.405 317.603 201.837 316.752 210.013 315.558C212.881 315.139 214.018 314.346 214.783 311.562C220.939 289.167 226.926 266.715 233.668 244.495C240.436 222.187 262.351 205.706 285.665 205.394C315.469 204.994 345.287 204.923 375.089 205.373C401.542 205.774 424.591 227.377 429.129 254.965C434.797 289.417 407.828 321.577 372.637 321.808C332.853 322.07 293.066 321.883 253.28 321.892C241.14 321.894 229 321.832 216.86 321.913C176.543 322.183 141.698 347.918 129.937 386.682C123.546 407.747 118.003 429.071 111.999 450.564ZM309.831 211.781C302.982 211.785 296.132 211.767 289.283 211.797C265.09 211.9 245.227 226.997 238.669 250.374C233.178 269.95 227.792 289.555 222.387 309.155C221.865 311.049 221.54 312.996 221.086 315.092C222.172 315.176 222.76 315.262 223.349 315.262C273.456 315.257 323.564 315.344 373.67 315.091C379.069 315.064 384.724 313.766 389.806 311.847C412.974 303.101 426.767 278.866 422.426 255.344C417.682 229.645 396.73 211.839 371.114 211.794C350.927 211.759 330.739 211.783 309.831 211.781Z" fill="#ED5816"/>
</svg>
